<svg width="16" height="17" viewBox="0 0 16 17" fill="none" xmlns="http://www.w3.org/2000/svg">
<g id="Group 88">
<path id="Vector 11 (Stroke)" fill-rule="evenodd" clip-rule="evenodd" d="M1.75192 2.09836C2.53985 1.32425 3.81733 1.32425 4.60526 2.09836L14.4267 11.7475C15.2146 12.5216 15.2146 13.7767 14.4267 14.5508C13.6388 15.3249 12.3613 15.3249 11.5733 14.5508L1.75192 4.90166C0.963991 4.12755 0.963991 2.87247 1.75192 2.09836Z" fill="white"/>
<path id="Vector 12 (Stroke)" fill-rule="evenodd" clip-rule="evenodd" d="M14.2481 2.44918C15.036 3.22329 15.036 4.47837 14.2481 5.25248L4.42665 14.9016C3.63872 15.6757 2.36124 15.6757 1.57331 14.9016C0.785381 14.1275 0.78538 12.8725 1.57331 12.0983L11.3947 2.44918C12.1827 1.67508 13.4601 1.67508 14.2481 2.44918Z" fill="white"/>
</g>
</svg>
