<svg width="23" height="24" viewBox="0 0 23 24" fill="none" xmlns="http://www.w3.org/2000/svg">
<path d="M8.14126 9.65357L4.92158 6.09887C4.55041 5.68924 3.86993 5.69106 3.4388 6.10433L0.791103 8.64132C0.00307637 9.39596 -0.222482 10.5165 0.233393 11.415C2.95686 16.8085 7.5046 21.1643 13.1397 23.7768C14.0781 24.2128 15.2487 23.9971 16.0368 23.2424L18.7092 20.6818C19.1422 20.2676 19.1432 19.6131 18.7111 19.2581L14.9803 16.1949C14.5901 15.8745 13.9839 15.9164 13.5927 16.2914L12.2946 17.5349C12.2281 17.6015 12.1406 17.6454 12.0456 17.6599C11.9505 17.6744 11.8531 17.6586 11.7683 17.615C9.64636 16.4463 7.88619 14.7605 6.66704 12.7295C6.62139 12.6482 6.60485 12.5549 6.61998 12.4638C6.63511 12.3727 6.68107 12.2889 6.7508 12.2252L8.04514 10.9862C8.43725 10.6094 8.48008 10.0277 8.14126 9.65357Z" fill="white"/>
<path d="M18.2678 6.97174L18.268 6.97161C18.2677 6.97177 18.2674 6.97193 18.2672 6.97208L18.2678 6.97174Z" fill="#474749" stroke="white" stroke-width="1.5"/>
</svg>
