<svg width="24" height="25" viewBox="0 0 24 25" fill="none" xmlns="http://www.w3.org/2000/svg">
<g id="Group 57">
<g id="Emergency Icon">
<path id="Vector" d="M9.14126 9.65356L5.92158 6.09886C5.55041 5.68923 4.86993 5.69105 4.4388 6.10433L1.7911 8.64132C1.00308 9.39595 0.777518 10.5165 1.23339 11.415C3.95686 16.8084 8.5046 21.1643 14.1397 23.7768C15.0781 24.2128 16.2487 23.9971 17.0368 23.2424L19.7092 20.6818C20.1422 20.2676 20.1432 19.6131 19.7111 19.2581L15.9803 16.1949C15.5901 15.8745 14.9839 15.9164 14.5927 16.2914L13.2946 17.5349C13.2281 17.6015 13.1406 17.6454 13.0456 17.6599C12.9505 17.6744 12.8531 17.6586 12.7683 17.615C10.6464 16.4463 8.88619 14.7605 7.66704 12.7294C7.62139 12.6482 7.60485 12.5549 7.61998 12.4638C7.63511 12.3727 7.68107 12.2889 7.7508 12.2251L9.04514 10.9862C9.43725 10.6094 9.48008 10.0277 9.14126 9.65356Z" stroke="#0173BC" stroke-width="1.5" stroke-linecap="round" stroke-linejoin="round"/>
<path id="Vector_2" d="M19.2678 6.97174L19.268 6.97161C19.2677 6.97177 19.2675 6.97193 19.2672 6.97208L19.2678 6.97174Z" fill="#474749" stroke="#0173BC" stroke-width="1.5"/>
</g>
</g>
</svg>
