<svg width="21" height="24" viewBox="0 0 21 24" fill="none" xmlns="http://www.w3.org/2000/svg">
<g id="Book Icon">
<g id="Group 2">
<path id="Vector" d="M3.75 2.25009H18.75V3.75009H3.75V2.25009Z" fill="white"/>
<path id="Vector_2" d="M19.4065 4.5H3.26201C3.04675 4.49729 2.83434 4.45584 2.63759 4.37815C2.44084 4.30046 2.26382 4.18815 2.11721 4.04798C1.9706 3.90781 1.85744 3.74269 1.78455 3.56258C1.71167 3.38246 1.68056 3.19109 1.69311 3C1.69206 2.61972 1.8535 2.25327 2.14476 1.9748C2.43602 1.69633 2.83537 1.52662 3.26201 1.5H19.4065C19.6302 1.5 19.8448 1.42098 20.0029 1.28033C20.1611 1.13968 20.25 0.948912 20.25 0.75C20.25 0.551088 20.1611 0.360322 20.0029 0.21967C19.8448 0.0790176 19.6302 0 19.4065 0H3.26201C2.3878 0.0272224 1.55965 0.355271 0.952226 0.914956C0.344801 1.47464 0.00558425 2.22221 0.00612019 3C-0.00204006 3.12239 -0.00204006 3.24511 0.00612019 3.3675C-0.00200672 3.42728 -0.00200672 3.48772 0.00612019 3.5475V21C0.00558425 21.7778 0.344801 22.5254 0.952226 23.085C1.55965 23.6447 2.3878 23.9728 3.26201 24H19.4065C19.6302 24 19.8448 23.921 20.0029 23.7803C20.1611 23.6397 20.25 23.4489 20.25 23.25V5.3025C20.2505 5.09845 20.1635 4.90191 20.0069 4.75283C19.8502 4.60375 19.6355 4.51335 19.4065 4.5Z" fill="white"/>
</g>
<path id="Union" fill-rule="evenodd" clip-rule="evenodd" d="M12 10H9V12L7 12V15H9V17H12V15H14V12L12 12V10Z" fill="#0173BC"/>
</g>
</svg>
