<svg width="26" height="24" viewBox="0 0 26 24" fill="none" xmlns="http://www.w3.org/2000/svg">
<path id="Home Icon" d="M23.0217 12.81H22.2717V13.56V22.5086C22.2717 22.7558 22.2168 22.947 22.1349 23.0582C22.0824 23.1294 21.9643 23.25 21.59 23.25H16.6134V15.0515V14.3015H15.8634H10.1368H9.38676V15.0515V23.25H4.41012C4.03591 23.25 3.91778 23.1294 3.8653 23.0582C3.78333 22.947 3.72846 22.7558 3.72846 22.5086V13.56V12.81H2.97846H1.18737L12.5278 0.984434L12.5279 0.984509L12.5366 0.975099C12.6641 0.837497 12.8272 0.765059 13.0002 0.751208C13.1745 0.765055 13.3363 0.837043 13.4623 0.973742L13.4673 0.979137L13.4724 0.984433L24.8128 12.81H23.0217ZM0.445426 12.7999C0.445436 12.7999 0.446 12.8001 0.447076 12.8004L0.445426 12.7999Z" stroke="#0173BC" stroke-width="1.5"/>
</svg>
