<svg width="25" height="26" viewBox="0 0 25 26" fill="none" xmlns="http://www.w3.org/2000/svg">
<g id="Map Icon">
<path id="Vector" d="M21.125 18.3547C22.9147 19.06 24 19.9853 24 21C24 23.2093 18.8509 25 12.5 25C6.14912 25 1 23.2093 1 21C1 19.9867 2.08531 19.0587 3.875 18.3547" stroke="white" stroke-width="1.5" stroke-linecap="round" stroke-linejoin="round"/>
<g id="Subtract">
<path fill-rule="evenodd" clip-rule="evenodd" d="M12.5 19.6667C12.5 19.6667 19.6875 12.3827 19.6875 8.25866C19.6875 4.136 16.4689 1 12.5 1C8.53106 1 5.3125 4.136 5.3125 8.25866C5.3125 12.3827 12.5 19.6667 12.5 19.6667ZM12.5 11C14.433 11 16 9.433 16 7.5C16 5.567 14.433 4 12.5 4C10.567 4 9 5.567 9 7.5C9 9.433 10.567 11 12.5 11Z" fill="white"/>
<path d="M12.5 19.6667L11.9661 20.1934C12.1071 20.3363 12.2994 20.4167 12.5 20.4167C12.7006 20.4167 12.8929 20.3363 13.0339 20.1934L12.5 19.6667ZM18.9375 8.25866C18.9375 9.1012 18.5601 10.1959 17.9028 11.4279C17.2559 12.6402 16.3845 13.9009 15.4992 15.0519C14.6161 16.2003 13.7311 17.2242 13.066 17.9619C12.7339 18.3303 12.4574 18.6263 12.2647 18.8295C12.1683 18.9311 12.0929 19.0095 12.042 19.0621C12.0165 19.0884 11.9972 19.1082 11.9844 19.1213C11.978 19.1278 11.9732 19.1327 11.9702 19.1358C11.9686 19.1373 11.9675 19.1385 11.9669 19.1391C11.9665 19.1395 11.9663 19.1397 11.9662 19.1398C11.9661 19.1399 11.9661 19.1399 11.9661 19.1399C11.9661 19.1399 11.9661 19.1399 12.5 19.6667C13.0339 20.1934 13.034 20.1933 13.0341 20.1932C13.0342 20.1931 13.0343 20.193 13.0345 20.1928C13.0348 20.1925 13.0352 20.1921 13.0357 20.1915C13.0368 20.1904 13.0383 20.1889 13.0402 20.1869C13.0441 20.183 13.0497 20.1774 13.0569 20.17C13.0713 20.1552 13.0923 20.1337 13.1195 20.1056C13.1738 20.0495 13.2529 19.9673 13.353 19.8617C13.5533 19.6505 13.8384 19.3452 14.1801 18.9663C14.8626 18.2093 15.7745 17.1545 16.6883 15.9664C17.5999 14.7809 18.5254 13.4474 19.2261 12.1341C19.9164 10.8404 20.4375 9.47813 20.4375 8.25866H18.9375ZM12.5 1.75C16.0555 1.75 18.9375 4.55099 18.9375 8.25866H20.4375C20.4375 3.72101 16.8824 0.25 12.5 0.25V1.75ZM6.0625 8.25866C6.0625 4.55099 8.9445 1.75 12.5 1.75V0.25C8.11762 0.25 4.5625 3.72101 4.5625 8.25866H6.0625ZM12.5 19.6667C13.0339 19.1399 13.0339 19.1399 13.0339 19.1399C13.0339 19.1399 13.0339 19.1399 13.0338 19.1398C13.0337 19.1397 13.0335 19.1395 13.0331 19.1391C13.0325 19.1385 13.0314 19.1373 13.0298 19.1358C13.0268 19.1327 13.022 19.1278 13.0156 19.1213C13.0028 19.1082 12.9835 19.0884 12.958 19.0621C12.9071 19.0095 12.8317 18.9311 12.7353 18.8295C12.5426 18.6263 12.2661 18.3303 11.934 17.9619C11.2689 17.2242 10.3839 16.2003 9.50077 15.0519C8.61555 13.9009 7.74411 12.6402 7.09724 11.4279C6.43988 10.1959 6.0625 9.1012 6.0625 8.25866H4.5625C4.5625 9.47813 5.08356 10.8404 5.77385 12.1341C6.47464 13.4474 7.40008 14.7809 8.31173 15.9664C9.22548 17.1545 10.1374 18.2093 10.8199 18.9663C11.1616 19.3452 11.4467 19.6505 11.647 19.8617C11.7471 19.9673 11.8262 20.0495 11.8805 20.1056C11.9077 20.1337 11.9287 20.1552 11.9431 20.17C11.9503 20.1774 11.9559 20.183 11.9598 20.1869C11.9617 20.1889 11.9632 20.1904 11.9643 20.1915C11.9648 20.1921 11.9652 20.1925 11.9655 20.1928C11.9657 20.193 11.9658 20.1931 11.9659 20.1932C11.966 20.1933 11.9661 20.1934 12.5 19.6667ZM15.25 7.5C15.25 9.01878 14.0188 10.25 12.5 10.25V11.75C14.8472 11.75 16.75 9.84721 16.75 7.5H15.25ZM12.5 4.75C14.0188 4.75 15.25 5.98122 15.25 7.5H16.75C16.75 5.15279 14.8472 3.25 12.5 3.25V4.75ZM9.75 7.5C9.75 5.98122 10.9812 4.75 12.5 4.75V3.25C10.1528 3.25 8.25 5.15279 8.25 7.5H9.75ZM12.5 10.25C10.9812 10.25 9.75 9.01878 9.75 7.5H8.25C8.25 9.84721 10.1528 11.75 12.5 11.75V10.25Z" fill="white"/>
</g>
</g>
</svg>
