<svg width="25" height="26" viewBox="0 0 25 26" fill="none" xmlns="http://www.w3.org/2000/svg">
<g id="Speaker">
<path id="Vector" d="M3.89343 8.9903H8.13524L14.5164 3.59375V22.1562L8.13524 16.7597H3.89343V8.9903ZM16.9139 8.11C18.168 9.4113 18.8074 10.9933 18.8319 12.8559C18.8319 14.642 18.1926 16.1729 16.9139 17.4487L15.6229 16.0709C16.5082 15.1523 16.9508 14.0679 16.9508 12.8176C16.9508 11.5418 16.5082 10.4319 15.6229 9.48784L16.9139 8.11ZM19.127 5.85188C20.9713 7.76555 21.8934 10.0747 21.8934 12.7793C21.8934 15.484 20.9713 17.8059 19.127 19.7451L17.7623 18.329C19.2377 16.8235 19.9754 14.9801 19.9754 12.7985C19.9754 10.6169 19.2377 8.76067 17.7623 7.22974L19.127 5.85188Z" fill="white"/>
</g>
</svg>
