<svg width="4" height="21" viewBox="0 0 4 21" fill="none" xmlns="http://www.w3.org/2000/svg">
<g id="Group">
<path id="Vector" d="M2 4.5C3.10457 4.5 4 3.60457 4 2.5C4 1.39543 3.10457 0.5 2 0.5C0.895431 0.5 0 1.39543 0 2.5C0 3.60457 0.895431 4.5 2 4.5Z" fill="#474749"/>
<path id="Vector_2" d="M2 12.3C3.10457 12.3 4 11.4046 4 10.3C4 9.19542 3.10457 8.29999 2 8.29999C0.895431 8.29999 0 9.19542 0 10.3C0 11.4046 0.895431 12.3 2 12.3Z" fill="#474749"/>
<path id="Vector_3" d="M2 20.5C3.10457 20.5 4 19.6046 4 18.5C4 17.3954 3.10457 16.5 2 16.5C0.895431 16.5 0 17.3954 0 18.5C0 19.6046 0.895431 20.5 2 20.5Z" fill="#474749"/>
</g>
</svg>
