<svg width="32" height="28" viewBox="0 0 32 28" fill="none" xmlns="http://www.w3.org/2000/svg">
<path id="Vector" d="M31.8455 26.2857L16.9892 0.571429C16.7678 0.189286 16.3857 0 16 0C15.6143 0 15.2286 0.189286 15.0108 0.571429L0.154468 26.2857C-0.284793 27.05 0.265176 28 1.1437 28H30.8563C31.7348 28 32.2848 27.05 31.8455 26.2857ZM14.8572 10.5714C14.8572 10.4143 14.9858 10.2857 15.1429 10.2857H16.8571C17.0142 10.2857 17.1428 10.4143 17.1428 10.5714V17.1429C17.1428 17.3 17.0142 17.4286 16.8571 17.4286H15.1429C14.9858 17.4286 14.8572 17.3 14.8572 17.1429V10.5714ZM16 23.1429C15.5514 23.1337 15.1243 22.9491 14.8103 22.6286C14.4963 22.3081 14.3204 21.8773 14.3204 21.4286C14.3204 20.9799 14.4963 20.5491 14.8103 20.2286C15.1243 19.9081 15.5514 19.7234 16 19.7143C16.4486 19.7234 16.8757 19.9081 17.1897 20.2286C17.5037 20.5491 17.6796 20.9799 17.6796 21.4286C17.6796 21.8773 17.5037 22.3081 17.1897 22.6286C16.8757 22.9491 16.4486 23.1337 16 23.1429Z" fill="#FF895E"/>
</svg>
